<svg xmlns="http://www.w3.org/2000/svg" version="1.1" width="600px" height="600px" viewBox="0 0 200 200" style="overflow:hidden!important;"><g id="svga-group-wrapper"><g id="svga-group-backs-single"><path id="SvgjsPath12890" d="M0 0h200v200H0V0z" fill="#ecf0f1" stroke-width="none" opacity="1"></path></g><g id="svga-group-humanwrap-move" transform="matrix(1,0,0,1,0,0)"><g id="svga-group-humanwrap"><g id="svga-group-hair-back-move" transform="matrix(1,0,0,1,0,0)"><g id="svga-group-hair-back"></g></g><g id="svga-group-humanbody-back"><path id="SvgjsPath12642" d="m170 180.3-27.3-6.9-18-9.9-1.5-28.2H76.8l-1.5 28.2-18 9.9-27.3 6.9-9.1 19.7-3 20h164.2l-3-20z" fill="#f0c7b1" stroke-width="none" opacity="1"></path><path id="SvgjsPath12643" d="m76.8 135.3-1.5 28.2-18 9.9-27.3 6.9-9.1 19.7-3 20h14.6v-20l2.7-17.7 23.8-6.4 24.7-8.3 3.5-32.3z" fill="#d19271" stroke-width="none" opacity="1"></path></g><g id="svga-group-chinshadow-single"><path id="SvgjsPath12638" d="m122.4 140.2 1-1-.2-3.9H76.8l-.5 9.2 13.8 13.8h14.3z" fill="#c27b55" stroke-width="none" opacity="1"></path></g><g id="svga-group-humanbody-front"><path id="SvgjsPath12644" d="m92.8 168.3 2 7.9 6.9 4.6s-8.5-3-8.7-3.6c-.2-.6-.2-8.9-.2-8.9z" fill="#d19271" stroke-width="none" opacity="1"></path></g><g id="svga-group-clothes-single"><path id="SvgjsPath12794" d="m179.6 200-8.5-20-28.8-7.4-9.5-4.8-.1-1.5-8.3-8.8.2 3.5-1.1 12.2-7.6 7.9-9.1 1.9-2.1 5.7-2.1 2.9-7.5-9.3-10.7-1.2-5.8-7.3-3.2-13.1.2-3.2-8.3 8.8-.1 1.5-9.5 4.8L29 180l-8.6 20-3.4 20h165.9z" fill="#285c64" stroke-width="none" opacity="1" stroke="none"></path><path id="SvgjsPath12795" d="m29.9 200.7 3.6-10.8 24.9-9.6 7.2-3.2.3-2 11.5-5.7h.1l-2.1-8.7.2-3.2-8.3 8.8-.1 1.5-9.5 4.8L29 180l-8.6 20-3.4 20h12.6z" fill="#194d55" stroke-width="none" opacity="1" stroke="none"></path><path id="SvgjsPath12796" d="m132.8 167.8 2.7 19.2 1.2 8.7L125 188l-5.2-5.3-4.2-1.6 4 3.4-6.4 2.6-7.9 1.5 7-.6-8.7 11.8V220h1.7l-.8-19.8 7.8-12 1-.1 7.1-2.8 4.2 4.5 13.3 8.1-1.6-12.4-3.5-17.7zm-33.1 29.7 2.9-5.9-3.5 5-6.1-8.7-12.5-3.4 3.8-3.3-4.2 1.6L75 188l-11.7 7.7 1.2-8.7 2.7-19.2-3.4 17.7-1.6 12.4 13.3-8.1 4.6-4.9.5-.5 11.8 4.3 6.1 8.6-1.2.7 1.1 21.9h1.5l-1.3-21 1.1-1.4zm10.5-12.8-1.5-.8-.9 1.4 1.4 1 1-1.6zm-9.3 13.3 1.4 1 1-1.7-1.5-.8-.9 1.5zm-.8 18.6 1.4 1 1-1.7-1.5-.8-.9 1.5zm-69.7-35.3 6.8 21 1.2 17.7h1.4l-1.1-17.8-8.3-20.9zm130.5 19.3-1.2 19.4h1.9l1-19.2 7-18.2-8.7 18z" fill="#0e3e45" stroke-width="none" opacity="1" stroke="none"></path><path id="SvgjsPath12797" d="m127 162.5-1.1-1.4v13l-5.3 8 4.8 4.6s2.3-11.1 2.3-11.8c0-.7-.7-12.4-.7-12.4zm-53.2.1.5-2.3-1.8 2.5 1.2 13.4 2.1 9.5 3.8-4.3-3.9-6.1-1.9-12.7z" fill="#3a6c73" stroke-width="none" opacity="1" stroke="none"></path></g><g id="svga-group-head" transform="matrix(1,0,0,1,0,0)"><g id="svga-group-ears-left-move" transform="matrix(1,0,0,1,0,0)"><g id="svga-group-ears-left"><path id="SvgjsPath12659" d="m64.4 98.3-5.3-9.7-7-.9-2 7.2.4 8.9 7 11.4 6.1 4.5 3.8-11.6z" fill="#f0c7b1" stroke-width="none" opacity="1"></path><path id="SvgjsPath12660" d="m58.4 101.2-4.1-9.8-1.9 5.1.4 5 2.6 6.1-1.6-9.4 1.5-.7 1.3 10.8 2 2.1z" fill="#d19271" stroke-width="none" opacity="1"></path><path id="SvgjsPath12661" d="m60.7 101-3.2-11.6-5.4-1.7 7 .9 5.3 9.7 3 9.8-3.8 11.6-6.1-4.5 3.6.7z" fill="#e1ac8f" stroke-width="none" opacity="1"></path></g></g><g id="svga-group-ears-right-move" transform="matrix(1,0,0,1,0,0)"><g id="svga-group-ears-right"><path id="SvgjsPath12662" d="m135.6 98.3 5.3-9.7 7-.9 2 7.2-.4 8.9-7 11.4-6.1 4.5-3.8-11.6z" fill="#f0c7b1" stroke-width="none" opacity="1"></path><path id="SvgjsPath12663" d="m141.6 101.2 4.1-9.8 1.9 5.1-.4 5-2.6 6.1 1.6-9.4-1.5-.7-1.3 10.8-2 2.1z" fill="#d19271" stroke-width="none" opacity="1"></path><path id="SvgjsPath12664" d="m139.3 101 3.2-11.6 5.4-1.7-7 .9-5.3 9.7-3 9.8 3.8 11.6 6.1-4.5-3.6.7z" fill="#e1ac8f" stroke-width="none" opacity="1"></path></g></g><g id="svga-group-faceshape-wrap"><g id="svga-group-faceshape-single"><path id="SvgjsPath12624" d="M138.1 60c-6.9-11.6-19.7-19.5-19.7-19.5-7.2-1.5-18.4-2.3-18.4-2.3s-11.1.8-18.4 2.3c0 0-12.8 7.9-19.7 19.5 0 0-5.1 14.5-5.3 24.8l1.2 18.7 9.1 23.5 8 7.6 18 18.1h14.2l18-18.1 8-7.6 9.1-23.5 1.2-18.7c-.2-10.3-5.3-24.8-5.3-24.8z" fill="#f0c7b1" stroke-width="none" opacity="1"></path><path id="SvgjsPath12625" d="m93.2 150.3-24.4-24.7-7.7-23.7.3-18 4.3-22.1 17.4-18 16.7-4 18.6.7c-7.2-1.5-18.4-2.3-18.4-2.3s-11.1.8-18.4 2.3c0 0-12.8 7.9-19.7 19.5 0 0-5.1 14.5-5.3 24.8l1.2 18.7 9.1 23.5 8 7.6 18 18.1h14.2l18-18.1 8-7.6-27 23.4H93.2v-.1z" fill="#d19271" stroke-width="none" opacity="1"></path></g></g><g id="svga-group-mouth-single-move" transform="matrix(1,0,0,1,0,0)"><g id="svga-group-mouth-single"><path id="SvgjsPath12831" d="m84.99 125.5 2.75 3.94 12.37-.68 12.45.84 3.02-3.87-3.73 2.46-6.81-2.5-4.93 1.46-4.57-1.35-7.7 1.93z" fill="#da7c87" stroke-width="none" opacity="1" transform="translate(0 2)"></path><path id="SvgjsPath12832" d="m89.12 131.92 1.15 2.64 10.05 2.86 10.83-3.61-10.89 2.15-9.41-2.31-1.73-1.73z" fill="#d19271" stroke-width="none" opacity="1" transform="translate(0 2)"></path></g></g><g id="svga-group-eyes-left-move" transform="matrix(1,0,0,1,0,0)"><g id="svga-group-eyes-left"><g id="svga-group-eyesback-left"><path id="SvgjsPath12703" d="M89.9 95.9s-3.2-4.2-4.4-5.4l-7.6-.2s-3.9 3.4-5.6 5.9l4.5 5 8 .2s3.5-2.8 5.1-5.5z" fill="#ffffff" stroke-width="none" opacity="1"></path></g><g id="svga-group-eyesiriswrapper-left" transform="matrix(1,0,0,1,0,0)"><g id="svga-group-eyesiriscontrol-left" transform="matrix(1,0,0,1,0,0)"><g id="svga-group-eyesiris-left"><path id="SvgjsPath12749" d="m76.8 98-.9-5.5 4.3-3.5 5.2 1.9.9 5.5-4.2 3.5z" fill="#4e60a3" stroke-width="none" opacity="1"></path><path id="SvgjsPath12750" d="m80.2 89.3 4.9 1.8.9 5.2-4 3.4-4.9-1.8-.9-5.2 4-3.4m-.1-.6-4.5 3.8 1 5.8 5.5 2 4.5-3.8-1-5.8-5.5-2z" fill="#253984" stroke-width="none" opacity="1"></path><path id="SvgjsPath12751" d="m78.1 95.4.7-3.1 3-.9 2.3 2.1-.6 3.1-3 .9z" fill="#000000" stroke-width="none" opacity="1"></path><path id="SvgjsPath12752" d="M79.1 91.9h1.8v1.8h-1.8v-1.8z" fill="#ffffff" stroke-width="none" opacity="1"></path><path id="SvgjsPath12753" d="M81.5 96.3h1v1h-1v-1z" fill="#ffffff" stroke-width="none" opacity="1"></path></g></g></g><g id="svga-group-eyesfront-left"><path id="SvgjsPath12711" d="M67.1 89.3v11.9l7.9 8.4h11.2l7.9-8.4V89.3l-7.9-8.4H75l-7.9 8.4zm5.2 6.9c1.8-2.5 5.6-5.9 5.6-5.9l7.6.2c1.2 1.2 4.4 5.4 4.4 5.4-1.6 2.7-5.1 5.5-5.1 5.5l-8-.2-4.5-5z" fill="#f0c7b1" stroke-width="none" opacity="1"></path><path id="SvgjsPath12712" d="M90.5 96.7 85.3 91l-7.2-.4s-5.1 4.8-6.9 6.9l3.2-4.7 3.2-3.1 8.4.3 4.5 6.7z" fill="#000000" stroke-width="none" opacity="1"></path><path id="SvgjsPath12713" d="m90.2 93.8-4.6-6.6-8.3-.4s-4.4 5.4-6.3 8.9c0 0 2.7-5.8 5.7-9.2l9.3.2 4.2 7.1z" fill="#e1ac8f" stroke-width="none" opacity="1"></path></g></g></g><g id="svga-group-eyes-right-move" transform="matrix(1,0,0,1,0,0)"><g id="svga-group-eyes-right"><g id="svga-group-eyesback-right"><path id="SvgjsPath12704" d="M110.1 95.9s3.2-4.2 4.4-5.4l7.6-.2s3.9 3.4 5.6 5.9l-4.5 5-8 .2s-3.5-2.8-5.1-5.5z" fill="#ffffff" stroke-width="none" opacity="1"></path></g><g id="svga-group-eyesiriswrapper-right" transform="matrix(1,0,0,1,0,0)"><g id="svga-group-eyesiriscontrol-right" transform="matrix(1,0,0,1,0,0)"><g id="svga-group-eyesiris-right"><path id="SvgjsPath12754" d="m114.6 98-.9-5.5 4.2-3.5 5.3 1.9.9 5.5-4.3 3.5z" fill="#4e60a3" stroke-width="none" opacity="1"></path><path id="SvgjsPath12755" d="m118 89.3 4.9 1.8.9 5.2-4 3.4-4.9-1.8-.9-5.2 4-3.4m-.1-.6-4.5 3.8 1 5.8 5.5 2 4.5-3.8-1-5.8-5.5-2z" fill="#253984" stroke-width="none" opacity="1"></path><path id="SvgjsPath12756" d="m115.9 95.4.6-3.1 3-.9 2.4 2.1-.7 3.1-3 .9z" fill="#000000" stroke-width="none" opacity="1"></path><path id="SvgjsPath12757" d="M116.9 91.9h1.8v1.8h-1.8v-1.8z" fill="#ffffff" stroke-width="none" opacity="1"></path><path id="SvgjsPath12758" d="M119.2 96.3h1v1h-1v-1z" fill="#ffffff" stroke-width="none" opacity="1"></path></g></g></g><g id="svga-group-eyesfront-right"><path id="SvgjsPath12714" d="M125 80.8h-11.2l-7.9 8.4v11.9l7.9 8.4H125l7.9-8.4V89.3l-7.9-8.5zm-1.8 20.4-8 .2s-3.5-2.8-5.1-5.5c0 0 3.2-4.2 4.4-5.4l7.6-.2s3.9 3.4 5.6 5.9l-4.5 5z" fill="#f0c7b1" stroke-width="none" opacity="1"></path><path id="SvgjsPath12717" d="m109.5 96.7 5.2-5.7 7.2-.4s5.1 4.8 6.9 6.9l-3.2-4.7-3.2-3.1-8.4.3-4.5 6.7z" fill="#000000" stroke-width="none" opacity="1"></path><path id="SvgjsPath12718" d="m109.8 93.8 4.6-6.6 8.3-.4s4.4 5.4 6.3 8.9c0 0-2.7-5.8-5.7-9.2l-9.3.2-4.2 7.1z" fill="#e1ac8f" stroke-width="none" opacity="1"></path></g></g></g><g id="svga-group-facehighlight-single"></g><g id="svga-group-eyebrows-left-move" transform="matrix(1,0,0,1,0,0)"><g id="svga-group-eyebrows-left-rotate" transform="matrix(1,0,0,1,0,0)"><g id="svga-group-eyebrows-left"><path id="SvgjsPath12809" d="M92.8 80.6 91.1 86l-2.4 1-14.1-2.3-3.3 1.1-5.1 3.3s3.4-5.3 3.5-5.7c.1-.3 2.5-4.1 2.5-4.1l11.6.6 9 .7z" fill="#2a232b" stroke-width="none" opacity="1"></path><path id="SvgjsPath12810" d="m77.5 85.3-.4-.1-1.2-2.9-3.8-2.8 1.8.5 3.1 1.8c.1 0 .3 2.1.5 3.5zm2.9.4h-.2c.1-.9.1-2.4.1-2.6 0-.2.6-1.5 1.1-2.6l.3.1c-.4 1.6-.9 3.9-1.3 5.1zm4.6.8 5.6-5.6h.6c-.8 1.4-2 3.3-2.2 3.5-.2.1-1.8 1.2-3.3 2.2l-.7-.1zm.1-5.6h.2l-1.5 3.6-1.3 1.6-.4-.1 3-5.1zm-16.1 4c1.4-.5 2.6-1 2.8-1 .2-.1 1.3.5 2.2 1.1l-.8.3c-.6-.1-1-.2-1.1-.3-.1 0-1.8.3-3.5.7.1-.3.3-.5.4-.8z" fill="#1b141c" stroke-width="none" opacity="1"></path></g></g></g><g id="svga-group-eyebrows-right-move" transform="matrix(1,0,0,1,0,0)"><g id="svga-group-eyebrows-right-rotate" transform="matrix(1,0,0,1,0,0)"><g id="svga-group-eyebrows-right"><path id="SvgjsPath12811" d="m107.2 80.6 1.8 5.5 2.4 1 14.1-2.3 3.3 1.1 5.1 3.3s-3.4-5.3-3.5-5.7c-.1-.3-2.5-4.1-2.5-4.1l-11.6.6-9.1.6z" fill="#2a232b" stroke-width="none" opacity="1"></path><path id="SvgjsPath12812" d="m122.5 85.3.4-.1 1.2-2.9 3.8-2.8-1.8.5-3.1 1.8c-.1 0-.3 2.1-.5 3.5zm-2.9.4h.2c-.1-.9-.1-2.4-.1-2.6 0-.2-.6-1.5-1.1-2.6l-.3.1c.4 1.6.9 3.9 1.3 5.1zm-4.6.8-5.6-5.6h-.6c.8 1.4 2 3.3 2.2 3.5.2.1 1.8 1.2 3.3 2.2l.7-.1zm-.1-5.6h-.2l1.5 3.6 1.3 1.6.4-.1-3-5.1zm16.1 4c-1.4-.5-2.6-1-2.8-1-.2-.1-1.3.5-2.2 1.1l.8.3c.6-.1 1-.2 1.1-.3.1 0 1.8.3 3.5.7-.1-.3-.3-.5-.4-.8z" fill="#1b141c" stroke-width="none" opacity="1"></path></g></g></g><g id="svga-group-beardwrap"><g id="svga-group-beard-single-move" transform="matrix(1,0,0,1,0,0)"><g id="svga-group-beard-single"></g></g></g><g id="svga-group-mustache-single-move" transform="matrix(1,0,0,1,0,0)"><g id="svga-group-mustache-single"></g></g><g id="svga-group-nose-single-move" transform="matrix(1,0,0,1,0,0)"><g id="svga-group-nose-single"><path id="SvgjsPath12846" d="m96.12 99.91-.45 6.4-5.78 8.87 2.98 2.25 1.63-2.02 4.32 3.82h2.41l4.27-3.82 1.57 1.96 3.15-2.19-5.79-8.92-.56-6.46-3.82-1.63z" fill="#f0c7b1" stroke-width="none" opacity="1" transform="translate(0 1)"></path><path id="SvgjsPath12847" d="m104.86 106.44-1.95-15.67 1.1 14.55-.86-.22 6.58 10.06-2.34 1.73-1.28-1.51.28-1.34-5.15 4.47h-2.4l-5.15-4.47.29 1.34-1.29 1.51-2.34-1.73 6.59-10.06-.86.22 1.33-22.81-2.19 23.93-5.82 8.83 3.81 2.79 1.44-2.01 4.19 3.91h2.4l4.2-3.91 1.43 2.01 3.81-2.79z" fill="#d19271" stroke-width="none" opacity="1" transform="translate(0 1)"></path><path id="SvgjsPath12848" d="m96.15 113.17 2.37 1.46 3.1.06 2.55-1.16-.3-1.76-3.59-.6-3.94.66z" fill="#f8d5c3" stroke-width="none" opacity="1" transform="translate(0 1)"></path></g></g><g id="svga-group-hair-front"><path id="SvgjsPath12869" d="m125.9 59.8-10.7 11.3-13.6 6 11.3-9.2-14.2 9s-9 2.9-8.4 2.7c.6-.2 17.5-13.2 17.5-13.2l-17.7 9.9-9 2.5 8.2-6.8 13.1-13.2-11.7 9-8.2 7.8 3.1-6.4 6-5.8-8.8 5.8-8.8 9.3-5.1 11.3 1.6-10.1L77.3 69l-9.2 11.5L66.9 92l-.4 11.3-4.5-14s.4 12.3.8 13.2c.4 1 3.1 13.8 3.1 13.8l-5.5-11.9 1.4 10.1-6.2-14.6-1.2-10.7-2.2 3.4s-1.8-19.9-1.6-20.5c.2-.6 5.6-16 5.6-16l-2.9.6 6.7-8.4L72.4 38l-5.8 1 12.1-5.7 20.4-3.5 10.7 1.6-10.3-4.9 15.2 4.3 9.7 6.5 4.2 6.1 4.8 1.1 10.9 6 6.9 12.5-4.5-3.2 4 9.7.5 18.8-2.4-5.4.4 5.2.9 6.8-3.9-5.1-2.5 5.5-3.1 10.7.4-15-1-13.1-7.4-8.8 1.9 4.9-7.8-9.2-.8-5z" fill="#2a232b" stroke-width="none" opacity="1"></path><path id="SvgjsPath12870" d="m126.2 52.6-10.6 11.8-9.2 4.9 8.3-8.6-15.3 8-6.3 2 7.7-5.1 12.6-13.2s-15.9 6.1-16.9 6.5c-1 .4-14.7 9.2-14.7 9.2l11.4-10.6-18.7 10.3-8.3 10.8-1.6 7.5-.8-9.4 8.8-12L88.8 54l-15.9 4.3-9.4 8.2 9-13.2 18.1-6.7-11.8-1.2-5.7 1.2 6.7-3.1 19.6-.6-6.5-5.1-9.6.2 12.6-2.4 9.8 2.2-3.3-4.1 11 3.7 7.7 5.9-3.7-6.1-3.7-3.3 7.7 3.1 6.5 9-1.7 6.6zm3.7-5.9-1.2 7.5 2.9 8 11 13.4 1 11.6 1.8-12 3.9 4.5-2.4-8.8-7.3-11 8.2 6.1-7.7-11.2 4.5 1.6-3.7-5.5-11-4.2z" fill="#322c33" stroke-width="none" opacity="1"></path><path id="SvgjsPath12871" d="m124.2 50.4-8.7 7.9-9.4 4.8 9.4-7.4 8.7-5.3zm-4.2-3.7-12.7-1.5-20.7 5.5s20.3-3.7 21.2-3.7 12.2-.3 12.2-.3zM58.7 95.8l-.2-19 4.1-9.2-6.1 8.7 2.2 19.5z" fill="#3a353a" stroke-width="none" opacity="1"></path></g><g id="svga-group-glasses-single-move" transform="matrix(1,0,0,1,0,0)"><g id="svga-group-glasses-single"></g></g></g></g></g><rect id="svga-credit-rect" width="200" height="15" x="0" y="185" fill="#ecf0f1" opacity="0.5" style="display: none;"></rect><text id="svga-credit-text" font-family="Avenir Next, Roboto, Helvetica, Arial, sans-serif" font-size="10px" text-anchor="start" font-weight="400" size="10px" anchor="start" weight="400" fill="#333333" x="33.40447998046875" y="182.60824704170227" style="display: none;"><tspan id="SvgjsTspan12623" dy="13" x="33.40447998046875">Created on AvatarMaker.com</tspan></text></g><defs id="SvgjsDefs12570"></defs></svg>